<svg width="162" height="25" viewBox="0 0 162 25" fill="none" xmlns="http://www.w3.org/2000/svg">
<path d="M0.416 5.92V2.24H16.416V5.92H10.336V24H6.496V5.92H0.416ZM27.555 11.136C26.5523 11.136 25.5923 11.296 24.675 11.616C23.779 11.9147 22.915 12.4053 22.083 13.088V24H18.403V7.776H21.891V10.272C22.979 9.248 23.9497 8.52267 24.803 8.096C25.6563 7.66933 26.5737 7.456 27.555 7.456V11.136ZM43.066 24.16C41.978 24.16 41.1033 23.936 40.442 23.488C39.802 23.04 39.3327 22.4853 39.034 21.824C38.1167 22.6773 37.2313 23.3067 36.378 23.712C35.5247 24.1173 34.6073 24.32 33.626 24.32C32.1967 24.32 31.1407 23.8613 30.458 22.944C29.7967 22.0267 29.466 20.864 29.466 19.456C29.466 18.5173 29.6367 17.696 29.978 16.992C30.3407 16.2667 30.9273 15.7013 31.738 15.296C32.5487 14.8907 33.658 14.688 35.066 14.688C35.6207 14.688 36.1967 14.7307 36.794 14.816C37.3913 14.88 37.9887 14.9653 38.586 15.072V13.184C38.586 12.288 38.3407 11.68 37.85 11.36C37.3593 11.0187 36.698 10.848 35.866 10.848C35.226 10.848 34.522 10.9333 33.754 11.104C33.0073 11.2747 32.1967 11.5413 31.322 11.904L30.266 8.768C32.4207 7.89333 34.3727 7.456 36.122 7.456C37.7007 7.456 38.9167 7.72267 39.77 8.256C40.6447 8.78933 41.2527 9.49333 41.594 10.368C41.9353 11.2427 42.106 12.1813 42.106 13.184V19.424C42.106 19.744 42.1913 20.0533 42.362 20.352C42.554 20.6293 42.9167 20.768 43.45 20.768H43.802V24.16H43.066ZM33.018 19.392C33.018 19.968 33.146 20.4267 33.402 20.768C33.658 21.088 34.0313 21.248 34.522 21.248C35.0127 21.248 35.5673 21.12 36.186 20.864C36.8047 20.608 37.6047 20.0107 38.586 19.072V17.696C37.4767 17.504 36.3887 17.408 35.322 17.408C34.49 17.408 33.8927 17.5787 33.53 17.92C33.1887 18.2613 33.018 18.752 33.018 19.392ZM59.424 7.776L53.664 24H50.304L44.544 7.776H48.256L51.04 15.872L52.096 19.232L53.12 15.872L55.776 7.776H59.424ZM74.5043 23.072C73.3949 23.52 72.3496 23.84 71.3683 24.032C70.3869 24.224 69.4589 24.32 68.5843 24.32C66.1736 24.32 64.3496 23.6373 63.1123 22.272C61.8749 20.9067 61.2563 19.0933 61.2563 16.832V14.912C61.2563 13.3973 61.5336 12.0853 62.0883 10.976C62.6429 9.86667 63.4323 9.00267 64.4563 8.384C65.4803 7.76533 66.6856 7.456 68.0723 7.456C69.2029 7.456 70.2589 7.69067 71.2403 8.16C72.2429 8.608 73.0536 9.32267 73.6723 10.304C74.3123 11.264 74.6323 12.5013 74.6323 14.016C74.6323 14.464 74.6003 14.944 74.5363 15.456C74.4723 15.9467 74.3656 16.4693 74.2163 17.024H64.8083C64.8509 18.3467 65.1816 19.3387 65.8003 20C66.4189 20.6613 67.4109 20.992 68.7763 20.992C69.5016 20.992 70.2483 20.9067 71.0163 20.736C71.8056 20.5653 72.6163 20.3093 73.4483 19.968L74.5043 23.072ZM68.0723 10.56C67.0909 10.56 66.3229 10.88 65.7683 11.52C65.2349 12.1387 64.9256 13.0347 64.8403 14.208H70.9843C71.0056 14.1013 71.0163 14.0053 71.0163 13.92C71.0163 13.8133 71.0163 13.7173 71.0163 13.632C71.0163 12.608 70.7283 11.84 70.1523 11.328C69.5763 10.816 68.8829 10.56 68.0723 10.56ZM78.7758 19.424V0.32H82.4558V19.424C82.4558 19.744 82.5304 20.0533 82.6798 20.352C82.8504 20.6293 83.1704 20.768 83.6398 20.768H84.1518V24.16H83.2558C82.0398 24.16 81.1118 23.9253 80.4718 23.456C79.8318 22.9867 79.3838 22.3893 79.1278 21.664C78.8931 20.9387 78.7758 20.192 78.7758 19.424Z" fill="white"/>
<path d="M94.6018 24V2.24H101.226C102.847 2.24 104.127 2.47467 105.066 2.944C106.026 3.41333 106.708 4.07467 107.114 4.928C107.54 5.78133 107.754 6.784 107.754 7.936V8.832C107.754 10.5173 107.028 11.808 105.578 12.704C106.602 13.1093 107.38 13.696 107.914 14.464C108.447 15.232 108.714 16.1493 108.714 17.216V18.112C108.714 19.2853 108.5 20.32 108.074 21.216C107.647 22.0907 106.943 22.7733 105.962 23.264C104.98 23.7547 103.668 24 102.026 24H94.6018ZM101.226 5.76H98.4418V11.2H101.226C102.079 11.2 102.719 11.008 103.146 10.624C103.594 10.2187 103.818 9.67467 103.818 8.992V7.936C103.818 7.25333 103.594 6.72 103.146 6.336C102.719 5.952 102.079 5.76 101.226 5.76ZM102.026 14.72H98.4418V20.48H102.026C102.922 20.48 103.604 20.2667 104.074 19.84C104.543 19.4133 104.778 18.8373 104.778 18.112V17.056C104.778 16.3307 104.543 15.7653 104.074 15.36C103.604 14.9333 102.922 14.72 102.026 14.72Z" fill="black"/>
<path d="M126.121 14.912V16.832C126.121 19.0933 125.502 20.9067 124.265 22.272C123.027 23.6373 121.278 24.32 119.017 24.32C116.755 24.32 115.006 23.6373 113.769 22.272C112.531 20.9067 111.913 19.0933 111.913 16.832V14.912C111.913 12.6507 112.521 10.848 113.737 9.504C114.974 8.13867 116.734 7.456 119.017 7.456C121.299 7.456 123.049 8.13867 124.265 9.504C125.502 10.848 126.121 12.6507 126.121 14.912ZM122.345 14.912C122.345 13.6107 122.057 12.5973 121.481 11.872C120.905 11.1253 120.083 10.752 119.017 10.752C117.95 10.752 117.129 11.1253 116.553 11.872C115.977 12.5973 115.689 13.6107 115.689 14.912V16.832C115.689 18.1333 115.977 19.1573 116.553 19.904C117.129 20.6507 117.95 21.024 119.017 21.024C120.083 21.024 120.905 20.6507 121.481 19.904C122.057 19.1573 122.345 18.1333 122.345 16.832V14.912ZM143.527 14.912V16.832C143.527 19.0933 142.908 20.9067 141.671 22.272C140.433 23.6373 138.684 24.32 136.423 24.32C134.161 24.32 132.412 23.6373 131.175 22.272C129.937 20.9067 129.319 19.0933 129.319 16.832V14.912C129.319 12.6507 129.927 10.848 131.143 9.504C132.38 8.13867 134.14 7.456 136.423 7.456C138.705 7.456 140.455 8.13867 141.671 9.504C142.908 10.848 143.527 12.6507 143.527 14.912ZM139.751 14.912C139.751 13.6107 139.463 12.5973 138.887 11.872C138.311 11.1253 137.489 10.752 136.423 10.752C135.356 10.752 134.535 11.1253 133.959 11.872C133.383 12.5973 133.095 13.6107 133.095 14.912V16.832C133.095 18.1333 133.383 19.1573 133.959 19.904C134.535 20.6507 135.356 21.024 136.423 21.024C137.489 21.024 138.311 20.6507 138.887 19.904C139.463 19.1573 139.751 18.1333 139.751 16.832V14.912ZM157.349 24L153.349 17.248C152.709 17.888 152.037 18.528 151.333 19.168V24H147.653V0.32H151.333V15.104C152.549 13.8667 153.594 12.6827 154.469 11.552C155.365 10.4 156.186 9.14133 156.933 7.776H161.157C160.453 9.056 159.685 10.272 158.853 11.424C158.021 12.576 157.104 13.7387 156.101 14.912L161.797 24H157.349Z" fill="#D8C203"/>
</svg>
